<svg width="1400" height="900" viewBox="0 0 1400 900" fill="none" xmlns="http://www.w3.org/2000/svg">
  <rect width="1400" height="900" fill="#F8FAFC"/>
  <rect x="120" y="70" width="1160" height="760" rx="28" fill="#FFFFFF" stroke="#E2E8F0"/>

  <text x="180" y="135" fill="#0F172A" font-family="Manrope, Arial, sans-serif" font-size="34" font-weight="700">Novo Agendamento</text>
  <text x="180" y="170" fill="#64748B" font-family="Manrope, Arial, sans-serif" font-size="18">Sugestão de UX: data e horário separados, com bloqueios visuais reais.</text>

  <rect x="180" y="215" width="470" height="76" rx="18" fill="#FFFFFF" stroke="#CBD5E1"/>
  <text x="205" y="243" fill="#334155" font-family="Manrope, Arial, sans-serif" font-size="16" font-weight="600">Paciente</text>
  <text x="205" y="272" fill="#94A3B8" font-family="Manrope, Arial, sans-serif" font-size="18">Selecione o paciente</text>

  <rect x="680" y="215" width="470" height="76" rx="18" fill="#FFFFFF" stroke="#CBD5E1"/>
  <text x="705" y="243" fill="#334155" font-family="Manrope, Arial, sans-serif" font-size="16" font-weight="600">Médico</text>
  <text x="705" y="272" fill="#94A3B8" font-family="Manrope, Arial, sans-serif" font-size="18">Dr. Lucas Moreira · Cardiologia</text>

  <rect x="180" y="330" width="460" height="390" rx="24" fill="#F8FAFC" stroke="#E2E8F0"/>
  <text x="215" y="380" fill="#0F172A" font-family="Manrope, Arial, sans-serif" font-size="24" font-weight="700">Escolha a data</text>
  <text x="215" y="408" fill="#64748B" font-family="Manrope, Arial, sans-serif" font-size="15">Datas indisponíveis ficam bloqueadas. Datas com poucos horários podem receber indicador.</text>

  <rect x="215" y="438" width="390" height="235" rx="18" fill="#FFFFFF" stroke="#E2E8F0"/>
  <text x="245" y="475" fill="#0F172A" font-family="Manrope, Arial, sans-serif" font-size="18" font-weight="700">Março 2026</text>
  <text x="245" y="510" fill="#94A3B8" font-family="Manrope, Arial, sans-serif" font-size="14">DOM</text>
  <text x="295" y="510" fill="#94A3B8" font-family="Manrope, Arial, sans-serif" font-size="14">SEG</text>
  <text x="345" y="510" fill="#94A3B8" font-family="Manrope, Arial, sans-serif" font-size="14">TER</text>
  <text x="395" y="510" fill="#94A3B8" font-family="Manrope, Arial, sans-serif" font-size="14">QUA</text>
  <text x="445" y="510" fill="#94A3B8" font-family="Manrope, Arial, sans-serif" font-size="14">QUI</text>
  <text x="495" y="510" fill="#94A3B8" font-family="Manrope, Arial, sans-serif" font-size="14">SEX</text>
  <text x="545" y="510" fill="#94A3B8" font-family="Manrope, Arial, sans-serif" font-size="14">SÁB</text>

  <g font-family="Manrope, Arial, sans-serif" font-size="16" font-weight="600">
    <rect x="235" y="530" width="38" height="38" rx="12" fill="#F1F5F9"/><text x="248" y="555" fill="#94A3B8">1</text>
    <rect x="285" y="530" width="38" height="38" rx="12" fill="#FFFFFF"/><text x="298" y="555" fill="#0F172A">2</text>
    <rect x="335" y="530" width="38" height="38" rx="12" fill="#FFFFFF"/><text x="348" y="555" fill="#0F172A">3</text>
    <rect x="385" y="530" width="38" height="38" rx="12" fill="#DBEAFE"/><text x="398" y="555" fill="#2563EB">4</text>
    <rect x="435" y="530" width="38" height="38" rx="12" fill="#FFFFFF"/><text x="448" y="555" fill="#0F172A">5</text>
    <rect x="485" y="530" width="38" height="38" rx="12" fill="#FEE2E2"/><text x="498" y="555" fill="#DC2626">6</text>
    <rect x="535" y="530" width="38" height="38" rx="12" fill="#F1F5F9"/><text x="548" y="555" fill="#94A3B8">7</text>

    <rect x="235" y="580" width="38" height="38" rx="12" fill="#F1F5F9"/><text x="246" y="605" fill="#94A3B8">8</text>
    <rect x="285" y="580" width="38" height="38" rx="12" fill="#FFFFFF"/><text x="296" y="605" fill="#0F172A">9</text>
    <rect x="335" y="580" width="38" height="38" rx="12" fill="#FFFFFF"/><text x="345" y="605" fill="#0F172A">10</text>
    <rect x="385" y="580" width="38" height="38" rx="12" fill="#FEE2E2"/><text x="396" y="605" fill="#DC2626">11</text>
    <rect x="435" y="580" width="38" height="38" rx="12" fill="#FFFFFF"/><text x="446" y="605" fill="#0F172A">12</text>
    <rect x="485" y="580" width="38" height="38" rx="12" fill="#FFFFFF"/><text x="496" y="605" fill="#0F172A">13</text>
    <rect x="535" y="580" width="38" height="38" rx="12" fill="#F1F5F9"/><text x="546" y="605" fill="#94A3B8">14</text>

    <rect x="235" y="630" width="38" height="38" rx="12" fill="#F1F5F9"/><text x="246" y="655" fill="#94A3B8">15</text>
    <rect x="285" y="630" width="38" height="38" rx="12" fill="#FFFFFF"/><text x="294" y="655" fill="#0F172A">16</text>
    <rect x="335" y="630" width="38" height="38" rx="12" fill="#FFFFFF"/><text x="344" y="655" fill="#0F172A">17</text>
    <rect x="385" y="630" width="38" height="38" rx="12" fill="#FFFFFF"/><text x="394" y="655" fill="#0F172A">18</text>
    <rect x="435" y="630" width="38" height="38" rx="12" fill="#FEE2E2"/><text x="444" y="655" fill="#DC2626">19</text>
    <rect x="485" y="630" width="38" height="38" rx="12" fill="#FFFFFF"/><text x="494" y="655" fill="#0F172A">20</text>
    <rect x="535" y="630" width="38" height="38" rx="12" fill="#F1F5F9"/><text x="544" y="655" fill="#94A3B8">21</text>
  </g>

  <circle cx="592" cy="549" r="5" fill="#DC2626"/>
  <circle cx="592" cy="599" r="5" fill="#DC2626"/>
  <circle cx="592" cy="649" r="5" fill="#DC2626"/>

  <circle cx="230" cy="695" r="6" fill="#2563EB"/>
  <text x="245" y="700" fill="#475569" font-family="Manrope, Arial, sans-serif" font-size="14">Data selecionada</text>
  <circle cx="390" cy="695" r="6" fill="#DC2626"/>
  <text x="405" y="700" fill="#475569" font-family="Manrope, Arial, sans-serif" font-size="14">Dia lotado ou indisponível</text>

  <rect x="670" y="330" width="500" height="390" rx="24" fill="#F8FAFC" stroke="#E2E8F0"/>
  <text x="705" y="380" fill="#0F172A" font-family="Manrope, Arial, sans-serif" font-size="24" font-weight="700">Horários do dia</text>
  <text x="705" y="408" fill="#64748B" font-family="Manrope, Arial, sans-serif" font-size="15">Mostre só os horários daquele médico na data escolhida.</text>

  <rect x="705" y="438" width="430" height="82" rx="18" fill="#FFFFFF" stroke="#E2E8F0"/>
  <text x="735" y="472" fill="#334155" font-family="Manrope, Arial, sans-serif" font-size="16" font-weight="600">Qua, 04 de março</text>
  <text x="735" y="500" fill="#64748B" font-family="Manrope, Arial, sans-serif" font-size="15">3 horários disponíveis • 2 bloqueados</text>

  <rect x="705" y="545" width="95" height="44" rx="14" fill="#2563EB"/>
  <text x="733" y="573" fill="#FFFFFF" font-family="Manrope, Arial, sans-serif" font-size="18" font-weight="700">08:00</text>

  <rect x="815" y="545" width="95" height="44" rx="14" fill="#E2E8F0"/>
  <text x="842" y="573" fill="#64748B" font-family="Manrope, Arial, sans-serif" font-size="18" font-weight="700">08:30</text>

  <rect x="925" y="545" width="95" height="44" rx="14" fill="#FFFFFF" stroke="#2563EB" stroke-width="2"/>
  <text x="952" y="573" fill="#2563EB" font-family="Manrope, Arial, sans-serif" font-size="18" font-weight="700">09:00</text>

  <rect x="1035" y="545" width="95" height="44" rx="14" fill="#FEE2E2"/>
  <text x="1062" y="573" fill="#DC2626" font-family="Manrope, Arial, sans-serif" font-size="18" font-weight="700">09:30</text>

  <rect x="705" y="607" width="95" height="44" rx="14" fill="#FFFFFF" stroke="#2563EB" stroke-width="2"/>
  <text x="732" y="635" fill="#2563EB" font-family="Manrope, Arial, sans-serif" font-size="18" font-weight="700">10:00</text>

  <rect x="815" y="607" width="95" height="44" rx="14" fill="#FFFFFF" stroke="#2563EB" stroke-width="2"/>
  <text x="842" y="635" fill="#2563EB" font-family="Manrope, Arial, sans-serif" font-size="18" font-weight="700">10:30</text>

  <rect x="705" y="682" width="430" height="24" rx="12" fill="#EEF2FF"/>
  <text x="725" y="699" fill="#4338CA" font-family="Manrope, Arial, sans-serif" font-size="13" font-weight="600">Sugestão: mostrar tooltip nos bloqueados com “Já reservado” ou “Fora da agenda do médico”.</text>

  <rect x="180" y="750" width="1040" height="1" fill="#E2E8F0"/>
  <text x="180" y="790" fill="#334155" font-family="Manrope, Arial, sans-serif" font-size="18" font-weight="700">Recomendação de produção</text>
  <text x="180" y="820" fill="#64748B" font-family="Manrope, Arial, sans-serif" font-size="16">Não bloquear o dia inteiro só porque existe 1 consulta. Bloqueie a data apenas se todos os slots daquele médico estiverem ocupados.</text>
</svg>
